# xmcd CD database file
#
# Track frame offsets:
#	180
#	23483
#	28054
#	38787
#	47498
#	57206
#	68239
#
# Disc length: 1108 seconds
#
# Revision: 0
# Processed by: cddbd v1.4PL0 Copyright (c) Steve Scherf et al.
# Submitted via: CDex 1.51
#
DISCID=51045207
DTITLE=Ágens - Ágens
DYEAR=1900
DGENRE=Merengue
TTITLE0=Reed women (Nádnõ)
TTITLE1=Cor contrinum (Bûn)
TTITLE2=Tentative (Keresés)
TTITLE3=Vulture (Vércse)
TTITLE4=Soul (Lélek)
TTITLE5=Storm (Vihar)
TTITLE6=No
EXTD=
EXTT0=
EXTT1=
EXTT2=
EXTT3=
EXTT4=
EXTT5=
EXTT6=
PLAYORDER=
